# xmcd
#
# Track frame offsets:
#	150
#	19597
#	43239
#	66407
#	83709
#	103491
#	124192
#	142748
#	164300
#	183121
#	200562
#	218019
#	234416
#	258895
#	279430
#	302069
#
# Disc length: 4330 seconds
#
# Revision: 0
# Processed by: cddbd v1.4PL0 Copyright (c) Steve Scherf et al.
# Submitted via: dBpowerAMP V4.0
#
DISCID=de10e810
DTITLE=Misha Omar - Misha
DYEAR=1900
DGENRE=General R&B
TTITLE0=Lilitan asmara
TTITLE1=hingga ke akhir nanti
TTITLE2=bunga bunga cinta
TTITLE3=tak ku percaya
TTITLE4=semoga abadi
TTITLE5=untukmu selamanya
TTITLE6=halaman cinta
TTITLE7=jangan berakhir
TTITLE8=seiring
TTITLE9=terpana
TTITLE10=destiny
TTITLE11=kembali ceria
TTITLE12=kau yang amat ku sayang
TTITLE13=permainan hati
TTITLE14=bunga bunga cinta versi 2003
TTITLE15=bunga bunga cinta minus one
EXTD=
EXTT0=
EXTT1=
EXTT2=
EXTT3=
EXTT4=
EXTT5=
EXTT6=
EXTT7=
EXTT8=
EXTT9=
EXTT10=
EXTT11=
EXTT12=
EXTT13=
EXTT14=
EXTT15=
PLAYORDER=
